<svg version="1" xmlns="http://www.w3.org/2000/svg" width="682.667" height="682.667" viewBox="0 0 512.000000 512.000000"><path d="M0 256v256h512V0H315v3.8c0 5.9-3.6 18.6-7.2 25.5-4 7.6-16.3 20.2-23.5 24-7.1 3.8-19.2 6.7-27.8 6.7-9.3 0-21.1-3.1-29.4-7.7-8.3-4.6-18.6-14.9-22.9-23-3.6-6.8-7.2-19.5-7.2-25.5V0H0v256zm398.1-21.9c17.8 1.8 31.4 7.5 42.3 17.8 5.8 5.5 14.6 16.9 14.6 18.9 0 .9-36 24.6-36.5 24-.1-.2-1.6-2.4-3.3-5-6.7-9.9-15.6-14.8-26.6-14.8-13.8 0-22.5 7.8-22.6 20.1 0 13 6.3 18.7 34.3 30.8 33.1 14.4 48.3 24.5 58.1 38.9 7.2 10.5 9.8 19.2 10.4 34 .5 15.1-.7 22.1-5.8 32.8-11.5 23.8-37.5 37.4-72 37.4-36.5 0-66.5-15.4-82.9-42.5-2.8-4.7-3.2-5.9-2-6.5.8-.5 9.5-5.6 19.3-11.3l17.9-10.5 4.2 5.7c5.5 7.3 14.1 15.3 19.4 18.1 12.6 6.4 31.7 6.5 43.4.2 13.9-7.4 15.8-25.1 3.8-35.4-4.7-4-18.2-10.9-37.5-19.2-22.5-9.7-37-19.7-45.2-31.2-8-11.2-11.1-20.5-12-35.9-1.1-18.4 4.3-33.8 16.1-46.3 12-12.8 27.5-19.2 50.6-21.1.9 0 6.3.4 12 1zM206 236.7c.7 1.6 24.2 53.4 52.2 115.3 28.1 61.9 51.2 112.8 51.5 113.3.2.4-10.9.6-24.7.5l-25.1-.3-5.2-12.5-5.3-12.5-46.6-.3-46.6-.2-5.1 12.1c-2.8 6.7-5.1 12.5-5.1 13s-10.3.9-23 .9c-12.6 0-23-.2-23-.5 0-.5 92.5-213 98-225.3 3.2-7 5.8-8.1 8-3.5z"/><path d="M201.6 322c-.3.8-2.4 7.3-4.6 14.5-3.9 12.5-10 28.3-20.1 52.2l-4.7 11.3h30c23.6 0 29.9-.3 29.5-1.3-.3-.6-4.5-10.7-9.3-22.2-4.8-11.6-11.3-28.9-14.5-38.5-3.2-9.6-6-16.8-6.3-16z"/></svg>