<svg xmlns="http://www.w3.org/2000/svg" viewBox="0 0 433 132">
  <defs>
    <linearGradient id="a" x1="40.11" x2="140.87" y1="140.87" y2="40.11" gradientTransform="matrix(1.18546 0 0 1.18546 -40.153 -41.229)" gradientUnits="userSpaceOnUse">
      <stop offset=".21" stop-color="#4a4f54"/>
      <stop offset=".42" stop-color="#4a4f54" stop-opacity="0"/>
      <stop offset=".59" stop-color="#4a4f54" stop-opacity="0"/>
      <stop offset=".81" stop-color="#4a4f54"/>
    </linearGradient>
  </defs>
  <path fill="url(#a)" d="M17.745 130.07a14.605 14.605 0 0011.084-5.073L128.906 8.904a14.605 14.605 0 00-12.388-6.863 14.593 14.593 0 00-11.036 5.026L4.895 122.472a14.629 14.629 0 0012.85 7.599z"/>
  <path fill="#4a4f54" d="M17.745 130.07a14.676 14.676 0 006.71-1.624V31.511l77.743 93.296a14.664 14.664 0 0011.25 5.264h3.07a14.64 14.64 0 0014.629-14.629V16.669a14.64 14.64 0 00-14.629-14.628 14.759 14.759 0 00-6.662 1.6V100.6L32.066 7.304a14.664 14.664 0 00-11.25-5.263h-3.07a14.64 14.64 0 00-14.63 14.628v98.773a14.64 14.64 0 0014.63 14.629zm209.673-95.133v62.237a.901.901 0 01-.889.89h-6.532a8.88 8.88 0 01-7.468-4.067l-29.376-45.403 1.008 22.678v25.902a.901.901 0 01-.89.89h-8.558a.901.901 0 01-.89-.89V34.937a.901.901 0 01.89-.889h6.437a8.915 8.915 0 017.468 4.054l29.376 45.332-.901-22.594V34.937a.89.89 0 01.889-.889h8.595a.901.901 0 01.841.89zm87.487 63.126h-9.057a.89.89 0 01-.83-1.185l23.983-61.976a1.351 1.351 0 011.244-.854h11.322a1.351 1.351 0 011.244.854l23.982 61.952a.89.89 0 01-.83 1.185h-8.985a.901.901 0 01-.842-.569l-19.382-50.975a.89.89 0 00-1.672 0L315.747 97.47a.901.901 0 01-.842.593zm114.789-1.434l-17.996-22.986c10.16-1.92 16.1-8.773 16.1-19.288 0-12.08-7.86-20.307-21.766-20.307h-25.096a1.328 1.328 0 00-1.328 1.328 8.535 8.535 0 008.535 8.547h16.798c8.405 0 12.436 4.303 12.436 10.515 0 6.212-3.936 10.67-12.436 10.67h-24.005a1.34 1.34 0 00-1.328 1.339v30.822a.89.89 0 00.89.889h8.558a.901.901 0 00.89-.89V74.2h9.874l15.613 20.378a8.903 8.903 0 007.112 3.485h6.497a.89.89 0 00.652-1.434zm-141.865-62.58h-39.713a1.185 1.185 0 00-1.185 1.185 8.69 8.69 0 008.69 8.689h32.208a.877.877 0 00.89-.89v-8.096a.89.89 0 00-.89-.889zm0 54.14h-29.636a.901.901 0 01-.89-.89V71.248a.89.89 0 01.89-.89h27.396a.89.89 0 00.889-.888V61.36a.89.89 0 00-.89-.889h-37.33a1.34 1.34 0 00-1.327 1.34v34.911a1.328 1.328 0 001.328 1.34h39.57a.89.89 0 00.89-.889v-8.097a.877.877 0 00-.89-.889z" class="cls-2"/>
</svg>
