<svg xmlns="http://www.w3.org/2000/svg" xmlns:xlink="http://www.w3.org/1999/xlink" width="128" height="128" viewBox="48.348 49.332 128 128"><defs><path id="a" d="M109.979 51.548L61.181 79.707a5.89 5.89 0 00-2.947 5.104v56.362a5.898 5.898 0 002.946 5.105l48.796 28.182a5.892 5.892 0 005.896 0l48.786-28.182a5.902 5.902 0 002.945-5.105V84.81a5.892 5.892 0 00-2.947-5.103l-48.785-28.159a5.887 5.887 0 00-5.892 0"/></defs><clipPath id="b"><use xlink:href="#a" overflow="visible"/></clipPath><linearGradient id="c" gradientUnits="userSpaceOnUse" x1="167.948" y1="269.607" x2="169.106" y2="269.607" gradientTransform="scale(-86.4802 86.4802) rotate(63.886 298.742 -.692)"><stop offset="0" stop-color="#41873f"/><stop offset=".338" stop-color="#448b3c"/><stop offset=".653" stop-color="#4c9635"/><stop offset=".958" stop-color="#59a928"/><stop offset="1" stop-color="#5bac26"/></linearGradient><path clip-path="url(#b)" fill="url(#c)" d="M216.911 74.928l-70.497 143.811L8.927 151.344 79.423 7.531z"/><g><defs><path id="d" d="M59.446 144.753a5.885 5.885 0 001.734 1.526l41.859 24.176 6.969 4.006a5.942 5.942 0 003.4.771c.39-.032.779-.104 1.159-.215l51.456-94.224a5.921 5.921 0 00-1.367-1.086l-31.952-18.443-16.883-9.716a5.86 5.86 0 00-1.533-.61l-54.842 93.815z"/></defs><clipPath id="e"><use xlink:href="#d" overflow="visible"/></clipPath><linearGradient id="f" gradientUnits="userSpaceOnUse" x1="162.337" y1="272.174" x2="163.495" y2="272.174" gradientTransform="scale(132.7982 -132.7982) rotate(36.459 496.116 -109.61)"><stop offset="0" stop-color="#41873f"/><stop offset=".138" stop-color="#41873f"/><stop offset=".422" stop-color="#5d9f4a"/><stop offset=".721" stop-color="#74b253"/><stop offset=".908" stop-color="#7db956"/><stop offset="1" stop-color="#7db956"/></linearGradient><path clip-path="url(#e)" fill="url(#f)" d="M0 94.86L128.388 0l97.082 131.396-128.388 94.859z"/></g><g><defs><path id="g" d="M112.333 50.788a5.856 5.856 0 00-2.354.76L61.32 79.625l52.456 95.563a5.868 5.868 0 002.097-.728l48.786-28.182a5.905 5.905 0 002.847-4.027l-53.48-91.366a6.13 6.13 0 00-1.693-.097"/></defs><clipPath id="h"><use xlink:href="#g" overflow="visible"/></clipPath><linearGradient id="i" gradientUnits="userSpaceOnUse" x1="161.756" y1="270.175" x2="162.914" y2="270.175" gradientTransform="matrix(97.417 0 0 -97.417 -15701.281 26432.565)"><stop offset="0" stop-color="#7db956"/><stop offset=".092" stop-color="#7db956"/><stop offset=".279" stop-color="#74b253"/><stop offset=".578" stop-color="#5d9f4a"/><stop offset=".862" stop-color="#41873f"/><stop offset="1" stop-color="#41873f"/></linearGradient><path clip-path="url(#h)" fill="url(#i)" d="M61.32 50.768h106.185v124.421H61.32z"/></g></svg>