<svg xmlns="http://www.w3.org/2000/svg" version="1.1" id="Layer_1" x="0" y="0" xml:space="preserve" width="251.5" height="251.5"><style type="text/css" id="style2"></style><g id="g61"><g id="g23"><linearGradient id="SVGID_1_" gradientUnits="userSpaceOnUse" x1="0" y1="127.9" x2="450" y2="127.9" gradientTransform="matrix(.9218 0 0 -.9218 -58.321 243.59)"><stop offset="0" id="stop4" stop-color="#8654d6"/><stop offset=".131" id="stop6" stop-color="#6379db"/><stop offset=".5" id="stop8" stop-color="#03dde8"/><stop offset=".818" id="stop10" stop-color="#2befb3"/><stop offset="1" id="stop12" stop-color="#3ef79a"/></linearGradient><path d="M219.14 102.646h-92.18c-12.72 0-23.044-10.324-23.044-23.045 0-12.72 10.324-23.045 23.045-23.045h23.045c12.72 0 23.045-10.324 23.045-23.045 0-12.72-10.324-23.045-23.045-23.045H31.699C18.972 8.703 10.575 18.81 10.814 31.658v186.214c0 12.72 10.324 23.045 23.045 23.045h70.057c12.72 0 23.045-10.325 23.045-23.045 0-12.721-10.324-23.045-23.045-23.045H80.87c-12.721 0-23.045-10.325-23.045-23.045 0-12.721 10.324-23.046 23.045-23.046h138.27c12.72 0 23.045-10.324 23.045-23.045 0-12.72-10.324-23.045-23.045-23.045z" id="path15" fill="url(#SVGID_1_)" stroke-width=".922"/><path d="M173.05 240.917h46.09c12.722 0 23.046-10.325 23.046-23.045 0-12.721-10.324-23.045-23.045-23.045h-46.09c-12.721 0-23.045 10.324-23.045 23.045 0 12.72 10.324 23.045 23.045 23.045z" id="path17" fill="#03dde8" stroke-width=".922"/><circle cx="219.141" cy="33.511" id="circle21" r="23.045" fill="#3ef79a" stroke-width=".922"/></g></g></svg>