<svg xmlns="http://www.w3.org/2000/svg" viewBox="0 0 219.63 61.69"><defs><style>.cls-1{fill:#414042}.cls-2{fill:#969696}.cls-3{fill:#c9c9c9}.cls-4{fill:#00adea}.cls-6{fill:#fff}</style></defs><path class="cls-1" d="M65 44.62L62.48 19.4h4l1.7 17.46 3.24-12.22h2.43l3.24 12.18L78.4 19.4h3.72l-2.46 25.22H76l-3.6-12.29-3.64 12.29zM90.05 44.94a7.28 7.28 0 01-4.84-1.45 4.65 4.65 0 01-1.72-3.75 5.58 5.58 0 01.67-2.74 6 6 0 012-2.17 10 10 0 013.32-1.4A18.77 18.77 0 0194 33h1.86a8.51 8.51 0 011.05.1l.12 3.16c-.27 0-.59-.05-1-.06h-2.16a14 14 0 00-2.73.23 5.87 5.87 0 00-1.8.64 2.63 2.63 0 00-1 1 2.34 2.34 0 00-.33 1.21 2.2 2.2 0 00.23 1 1.79 1.79 0 00.6.68 2.75 2.75 0 00.91.36 5.11 5.11 0 001.14.12 5.5 5.5 0 002.17-.44 3.69 3.69 0 001.54-1.18 5.34 5.34 0 00.93-2 12.22 12.22 0 00.3-2.89 9.67 9.67 0 00-.48-3.45 3.07 3.07 0 00-1.42-1.69 5.08 5.08 0 00-2.34-.48 7 7 0 00-2.45.42 6.16 6.16 0 00-2.25 1.56l-2.51-2.75a9.39 9.39 0 013.52-2.15 12.3 12.3 0 013.89-.65 13.54 13.54 0 013.32.4 7.15 7.15 0 012.69 1.33A6.23 6.23 0 0199.62 30a10.36 10.36 0 01.67 4v10.62h-4.74v-2.19a6.64 6.64 0 01-1.13 1.17 4.8 4.8 0 01-1.3.77 6.77 6.77 0 01-1.45.43 9.48 9.48 0 01-1.62.14zM108.14 44.64a11.26 11.26 0 01-2.92-1 10.86 10.86 0 01-2.47-1.64l2-3.73.16-.32.32.2q.12.28.24.63a2.36 2.36 0 00.61.79 7.78 7.78 0 002.31 1.33 8.62 8.62 0 003.08.49 6.3 6.3 0 001.92-.25 2.66 2.66 0 001.21-.68 1.36 1.36 0 00.43-1 1.41 1.41 0 00-.24-.82 2.19 2.19 0 00-.77-.64 11.23 11.23 0 00-1.38-.57c-.57-.2-1.24-.41-2-.65a17.23 17.23 0 01-3.59-1.28 6.43 6.43 0 01-2.32-1.88 4.23 4.23 0 01-.81-2.57 4.33 4.33 0 01.91-2.72 6 6 0 012.57-1.88 10.14 10.14 0 013.92-.69 13.17 13.17 0 012.23.18 12.47 12.47 0 012 .53 8.79 8.79 0 011.79.89 10.4 10.4 0 011.56 1.28l-2.23 3.11-.29.33-.28-.25a2.31 2.31 0 00-.18-.62 2.65 2.65 0 00-.63-.75 5.34 5.34 0 00-1.84-.89 7.67 7.67 0 00-2-.29 6.05 6.05 0 00-2.37.42 1.36 1.36 0 00-1 1.27 1.22 1.22 0 00.45.93 4.41 4.41 0 001.48.79q1 .38 2.73.81a17.12 17.12 0 013.71 1.37 5.46 5.46 0 012.1 1.83 4.55 4.55 0 01.67 2.49 5.14 5.14 0 01-.92 2.81 6.13 6.13 0 01-2.61 2.13 10.18 10.18 0 01-4.27.79 17.47 17.47 0 01-3.28-.28zM122.06 44.62v-18.5h3.85v1.41a5.35 5.35 0 011-1.05 3.72 3.72 0 011.11-.59 4 4 0 011.16-.18 3.69 3.69 0 011.29.23 3 3 0 011.12.72 3.43 3.43 0 01.78 1.32 5.32 5.32 0 011-1.28 3.86 3.86 0 011.31-.75 5.37 5.37 0 011.64-.24 4 4 0 011.78.36 3.07 3.07 0 011.2 1 4.6 4.6 0 01.67 1.67 11.51 11.51 0 01.2 2.22v13.66h-4V32a10.77 10.77 0 00-.12-1.84 1.82 1.82 0 00-.36-.91.87.87 0 00-.65-.26 1.46 1.46 0 00-1 .5 3.59 3.59 0 00-.78 1.34 5.76 5.76 0 00-.31 2v11.79h-3.72v-12.5a7.52 7.52 0 00-.28-2.53 1.07 1.07 0 00-1.06-.64 1.26 1.26 0 00-.71.24 2.17 2.17 0 00-.6.69 4.13 4.13 0 00-.43 1.15 6.74 6.74 0 00-.16 1.56v12z"/><path class="cls-2" d="M144 44.62V19.4h7.37a14.75 14.75 0 013.8.44 7.38 7.38 0 012.67 1.28 5.22 5.22 0 011.56 2 6.08 6.08 0 01.5 2.51 6.31 6.31 0 01-.42 2.25 6 6 0 01-1.23 2 5.19 5.19 0 01-2 1.32 8.37 8.37 0 011.93 1 6.87 6.87 0 011.47 1.48 6.75 6.75 0 01.95 1.8 5.9 5.9 0 01.35 2 7.18 7.18 0 01-.59 2.94 6 6 0 01-1.76 2.26 7.94 7.94 0 01-3 1.46 15.81 15.81 0 01-4.25.51zm3.4-14.9h3.6a8.79 8.79 0 003.27-.49 3.29 3.29 0 001.73-1.35 3.73 3.73 0 00.5-1.93 3.67 3.67 0 00-.28-1.47 3.21 3.21 0 00-.87-1.18 4.23 4.23 0 00-1.56-.79 8.79 8.79 0 00-2.35-.28h-4zm0 12h4.41a8.39 8.39 0 002.89-.45 3.91 3.91 0 001.93-1.42 4.23 4.23 0 00.68-2.51 5 5 0 00-.6-2.49 4.22 4.22 0 00-1.95-1.7 8.65 8.65 0 00-3.64-.63h-3.72zM171.83 44.94a8.24 8.24 0 01-4.47-1.22 8.59 8.59 0 01-3.09-3.39 10.57 10.57 0 01-1.14-5 10.54 10.54 0 011.14-5 8.65 8.65 0 013.09-3.33 8.62 8.62 0 018.94 0 8.77 8.77 0 013.11 3.41 10.66 10.66 0 011.13 5 10.69 10.69 0 01-1.13 5 8.71 8.71 0 01-3.11 3.39 8.19 8.19 0 01-4.47 1.14zm0-2.83a4.19 4.19 0 002.63-.88 6.11 6.11 0 001.81-2.4 8.81 8.81 0 00.66-3.52 8.74 8.74 0 00-.66-3.52 5.83 5.83 0 00-1.81-2.38 4.24 4.24 0 00-2.63-.86 4.28 4.28 0 00-2.61.86 5.68 5.68 0 00-1.82 2.38 8.57 8.57 0 00-.67 3.52 9 9 0 00.65 3.52 5.82 5.82 0 001.8 2.4 4.31 4.31 0 002.65.88zM191.5 44.94a8.24 8.24 0 01-4.5-1.22 8.69 8.69 0 01-3.1-3.39 10.69 10.69 0 01-1.13-5 10.66 10.66 0 011.13-5A8.74 8.74 0 01187 27a8.64 8.64 0 019 0 8.65 8.65 0 013.09 3.41 10.54 10.54 0 011.14 5 10.57 10.57 0 01-1.14 5 8.59 8.59 0 01-3.09 3.31 8.28 8.28 0 01-4.5 1.22zm0-2.83a4.24 4.24 0 002.64-.88 6.07 6.07 0 001.79-2.4 9.45 9.45 0 000-7 5.79 5.79 0 00-1.79-2.38 4.44 4.44 0 00-5.25 0 5.76 5.76 0 00-1.82 2.38 8.74 8.74 0 00-.67 3.52 9 9 0 00.65 3.52 5.82 5.82 0 001.8 2.4 4.29 4.29 0 002.65.84zM208.21 35.59l-2.15 2v7h-3.52V17.7h3.89v.3a1.07 1.07 0 00-.3.52 5.1 5.1 0 00-.07 1v14.41l8.58-8 .57.08.59.06h2.65l-7.69 7.33 8.87 11.17-4.26.16z"/><path class="cls-3" d="M195.28 55.88a4.13 4.13 0 01-1.41-.91 4 4 0 01-1-1.37 4.67 4.67 0 010-3.5 4.22 4.22 0 011-1.42 4.27 4.27 0 011.41-1 4.44 4.44 0 011.77-.35 4.6 4.6 0 012.09.45 3.45 3.45 0 011.41 1.22l-1.16 1.28-.12.13-.15-.11a1.71 1.71 0 000-.31 1.05 1.05 0 00-.25-.38 1.73 1.73 0 00-.78-.47 3.63 3.63 0 00-1-.12 2.2 2.2 0 00-.88.18 2.47 2.47 0 00-.75.54 2.41 2.41 0 00-.53.86 3.69 3.69 0 00-.18 1.2 2.9 2.9 0 00.19 1.09 2.41 2.41 0 00.53.84 2.29 2.29 0 00.76.54 2.39 2.39 0 00.92.18 2.45 2.45 0 00.76-.11 2.59 2.59 0 00.74-.34 3.07 3.07 0 00.68-.63l1.17 1.34a4 4 0 01-1.6 1.11 5.19 5.19 0 01-1.85.35 4.55 4.55 0 01-1.77-.29zM205.81 56.21a4.07 4.07 0 01-2.1-.56 4 4 0 01-1.48-1.56 4.75 4.75 0 01-.53-2.31 4.64 4.64 0 01.53-2.25 4.2 4.2 0 011.48-1.59 4.11 4.11 0 014.21 0 4.22 4.22 0 011.49 1.59 4.65 4.65 0 01.55 2.25 4.75 4.75 0 01-.55 2.31 4 4 0 01-1.49 1.56 4.08 4.08 0 01-2.11.56zm0-1.68a1.69 1.69 0 001.06-.35 2.52 2.52 0 00.72-1 4 4 0 000-2.88 2.34 2.34 0 00-.72-.94 1.74 1.74 0 00-1.06-.33 1.7 1.7 0 00-1 .33 2.25 2.25 0 00-.72.94 3.91 3.91 0 000 2.88 2.25 2.25 0 00.72 1 1.64 1.64 0 001 .35zM211 56.06v-8.51h1.77v.65a2.15 2.15 0 01.47-.48 1.4 1.4 0 01.51-.27 1.64 1.64 0 01.53-.09 2 2 0 01.6.1 1.47 1.47 0 01.51.34 1.68 1.68 0 01.36.6 2.29 2.29 0 01.47-.58 1.64 1.64 0 01.6-.35 2.56 2.56 0 01.75-.11 1.89 1.89 0 01.83.17 1.29 1.29 0 01.6.47 2.07 2.07 0 01.31.77 5.23 5.23 0 01.09 1v6.27h-1.82v-5.79a4.53 4.53 0 00-.06-.84.83.83 0 00-.16-.42.41.41 0 00-.3-.12.68.68 0 00-.47.23 1.75 1.75 0 00-.36.62 2.81 2.81 0 00-.14.91v5.43h-1.72v-5.75a3.31 3.31 0 00-.13-1.17.47.47 0 00-.48-.29.62.62 0 00-.33.11 1.13 1.13 0 00-.28.32 2.48 2.48 0 00-.19.53 3.14 3.14 0 00-.07.72v5.53zM189.55 56.13a1.33 1.33 0 01-1-.42 1.29 1.29 0 01-.41-1 1.33 1.33 0 01.41-1 1.41 1.41 0 012 0 1.34 1.34 0 01.42 1 1.3 1.3 0 01-.42 1 1.32 1.32 0 01-1 .42z"/><path class="cls-4" d="M0 7.67L44.33 0v1.65l-.79-.22L2.19 8.68"/><path fill="#009eda" d="M12.19 61.69V12.8L0 7.67v48.88l12.19 5.14z"/><path class="cls-4" d="M29.6 9.49v1.44A3.07 3.07 0 0033.42 14a4.83 4.83 0 003.82-4.53V8l17.4-3.32V54l-42.45 7.69V12.8z"/><path class="cls-6" d="M15.84 43.79c4.24-10.7 10.74-13 13.34-13.44a6.51 6.51 0 011.12-.13h.6l-4.76 9.72-.42-.5A1.64 1.64 0 0024 39c-2.92.55-7.44 5.16-7.49 5.2l-1.41 1.47z"/><path class="cls-4" d="M29.18 30.8a6.31 6.31 0 011-.12l-4.13 8.43a2 2 0 00-2-.58c-3.13.58-7.78 5.36-7.78 5.36C20.4 33.42 26.72 31.25 29.18 30.8m0-.9c-2.69.5-9.41 2.82-13.75 13.79l-1.49 3.76 2.89-3c1.23-1.26 4.91-4.61 7.2-5a1.22 1.22 0 011.32.34l.85 1 .68-1.39L31 31l.58-1.18h-1.21a6.94 6.94 0 00-1.19.13z"/><path class="cls-6" d="M29.64 53.16c0-.06 3.47-6.08 2.75-8.74a1.41 1.41 0 00-.93-1l-.63-.22L39 35.81l.19.55c0 .08 2.7 8.24-9 17.31l-1.63 1.27z"/><path class="cls-4" d="M38.8 36.57s2.72 7.83-8.8 16.76c0 0 5.26-9.12 1.67-10.38l7.12-6.38m.48-1.52l-1 .9-7.12 6.37-1.18 1 1.27.44a1.1 1.1 0 01.7.8c.56 2.06-1.75 6.74-2.7 8.38l-2 3.56 3.23-2.5c12-9.31 9.31-17.52 9.19-17.87l-.38-1.09z"/><path class="cls-6" d="M28.39 47.37a10 10 0 01-3.2-1.46 9.39 9.39 0 01-2.48-2.43l-.09-.13v-.18c.71-3.42 3.94-9.55 7.53-14.25 6.2-8.13 16.63-12.33 17.08-12.5l.6-.24-.06.61c0 .45-1 11.13-7.25 19.26-3.52 4.7-8.63 9.55-11.81 11.27l-.16.09z"/><path class="cls-4" d="M47.37 16.83s-1 10.9-7.14 19c-3.63 4.75-8.69 9.49-11.67 11.11a9.9 9.9 0 01-3.07-1.41 9.27 9.27 0 01-2.39-2.34c.67-3.2 3.8-9.27 7.42-14 6.19-8.09 16.85-12.32 16.85-12.32m1-1.31l-1.2.48c-.45.18-11 4.43-17.32 12.69-3.63 4.76-6.91 11-7.63 14.47l-.07.35.17.27a10.28 10.28 0 002.57 2.52 10.47 10.47 0 003.32 1.52l.33.07.32-.18C32.1 46 37.28 41 40.9 36.28c6.31-8.25 7.32-19.07 7.36-19.53l.11-1.23z"/><path class="cls-6" d="M45.5 25.15a13.69 13.69 0 01-3.22-1.69 12.93 12.93 0 01-2.7-2.38l-.3-.38.48-.31a47.46 47.46 0 017.51-4l.6-.24-.06.61a42.38 42.38 0 01-1.68 8l-.13.54z"/><path class="cls-4" d="M47.37 16.83a43.09 43.09 0 01-1.67 7.88 13.1 13.1 0 01-3.12-1.64A12.92 12.92 0 0140 20.76a48.93 48.93 0 017.42-3.93m1-1.31l-1.2.48a48.38 48.38 0 00-7.6 4l-1 .62.6.76A13.12 13.12 0 0042 23.84a13.85 13.85 0 003.32 1.74l.94.3.32-1.05a44.46 44.46 0 001.7-8.08l.11-1.23z"/><path class="cls-6" d="M28.39 47.37a10 10 0 01-3.2-1.46 9.39 9.39 0 01-2.48-2.43l-.09-.13v-.18a16 16 0 01.71-2.17l.29-.76.48.49a28.49 28.49 0 003 2.7 33.17 33.17 0 003.64 1.86l.64.28-.67.49a16.4 16.4 0 01-2 1.31l-.16.09z"/><path class="cls-4" d="M23.75 41a29.26 29.26 0 003.05 2.73 31.65 31.65 0 003.69 1.89 15 15 0 01-1.93 1.27 9.9 9.9 0 01-3.07-1.41 9.27 9.27 0 01-2.39-2.34 15 15 0 01.65-2.14m-.27-1.69l-.56 1.51a15.89 15.89 0 00-.7 2.3l-.07.35.17.27a10.28 10.28 0 002.57 2.52 10.47 10.47 0 003.32 1.52l.33.07.32-.18a18.3 18.3 0 002.07-1.35l1.34-1-1.27-.51A30.63 30.63 0 0127.4 43a29.89 29.89 0 01-3-2.66l-1-1z"/><path class="cls-6" d="M23 49.11l-.17-.11-.13-.1v-.22c-.06-.91 4.09-6.46 5.36-8.14 1.64-2.17 5.57-7.22 6.44-7.38h.17l.17.09c.3.21.8.55-5.18 8.42-1.64 2.18-5.57 7.25-6.45 7.42z"/><path class="cls-4" d="M34.46 33.63c.25.18-2.09 3.67-5.22 7.8s-5.68 7.12-6.12 7.2c-.25-.18 2.08-3.69 5.23-7.84 3-4 5.67-7.08 6.1-7.16m0-.9c-.32.06-1.17.22-6.78 7.6s-5.48 8.2-5.47 8.48a.76.76 0 00.33.6.8.8 0 00.63.12c.33-.06 1.18-.23 6.79-7.63 1.53-2 2.92-4 3.92-5.45 1.34-2 2-3.06 1.22-3.6a.87.87 0 00-.64-.12z"/></svg>