<svg xmlns="http://www.w3.org/2000/svg" viewBox="0 0 2770 562">
  <path fill="#100f0d" d="M804.398 145.952c-78.117 0-141.234 60.911-141.234 136.383 0 75.919 63.117 137.269 141.238 137.269 36.634 0 71.062-14.12 97.104-37.516l11.478 12.795c-28.693 26.486-67.975 42.82-109.017 42.82-87.837 0-159.34-69.298-159.34-154.92 0-85.629 71.506-154.483 159.34-154.483 41.482 0 79.884 15.89 108.567 41.49l-11.028 14.123c-25.601-23.83-60.47-37.961-97.104-37.961m380.432 150.952v140.355h-18.541V300.432c0-47.221-27.8-75.035-75.028-75.035-56.937 1.325-90.039 39.286-90.039 99.313V437.26H982.69v-327.5h18.537v157.568c15.448-38.844 48.106-59.58 94.452-60.464 56.053 0 89.156 33.988 89.156 90.04m231.704 65.325V324.71h-80.334c-45.025 0-69.734 15.45-69.734 45.016 0 30.458 23.39 51.204 60.908 51.204 42.808 0 75.027-18.536 89.16-58.704zm.438 75.03l-.438-45.457c-19.424 31.777-52.087 45.902-91.806 45.902-45.469 0-75.92-28.69-75.92-67.53 0-38.405 32.66-61.797 85.627-61.797h81.653v-22.513c-.442-38.839-22.948-62.23-68.852-62.23-28.695 0-52.967 11.48-77.244 30.018l-8.825-14.129c27.365-19.86 53.846-32.659 88.714-32.659 54.289 0 83.864 30.016 84.302 77.68l.886 152.716h-18.099m120.464-229.952V437.26h-18.094V207.307zm6.62-66.208c0 9.267-7.059 16.325-15.447 16.325-8.386 0-15.446-7.054-15.446-16.325 0-8.832 7.06-15.89 15.446-15.89 8.388 0 15.446 7.058 15.446 15.89m287.333 155.805v140.355h-18.537V300.432c0-47.221-27.809-75.035-75.033-75.035-52.967 1.325-85.628 34.43-89.6 87.4V437.26h-18.535V207.307h18.534v58.7c15.45-37.953 48.108-58.26 94.011-59.142 56.057 0 89.16 33.984 89.16 90.039m172.55-149.628c-48.988 0-80.771 20.305-80.771 52.524 0 94.014 181.4 45.461 180.523 159.338 0 47.669-42.816 78.565-107.256 78.565-41.05 0-82.978-18.101-109.9-44.581l9.712-16.333c25.16 26.038 64.442 41.93 100.627 41.93 52.967 0 86.95-22.946 86.95-59.139.884-96.665-180.517-47.232-180.517-158.46 0-44.573 40.605-73.266 101.511-73.266 31.34 0 65.324 10.15 88.278 25.16l-8.388 16.776c-22.949-15.008-54.287-22.514-80.769-22.514m323.508 214.952V324.71h-80.333c-45.02 0-69.735 15.45-69.735 45.016 0 30.458 23.394 51.204 60.908 51.204 42.809 0 75.035-18.536 89.16-58.704zm.438 75.03l-.438-45.457c-19.424 31.777-52.083 45.9-91.806 45.9-45.469 0-75.915-28.685-75.915-67.53 0-38.403 32.655-61.795 85.623-61.795h81.658v-22.513c-.45-38.839-22.949-62.23-68.852-62.23-28.693 0-52.973 11.48-77.246 30.018l-8.828-14.129c27.366-19.86 53.848-32.659 88.718-32.659 54.284 0 83.863 30.016 84.294 77.68l.884 152.716h-18.093m125.32-255.558v31.343h71.06v15.89h-71.059V437.26h-18.097V228.934h-29.127v-15.89h29.127v-30.013c0-44.578 31.344-74.153 67.973-73.712 16.773 0 33.984 6.177 46.781 16.334l-8.375 15.01c-11.042-8.396-24.721-13.686-37.962-13.686-28.247-.445-50.318 22.068-50.318 54.722m285.124 129.33c-3.537-52.083-37.523-87.397-90.046-87.397-51.639 0-89.156 35.314-93.567 87.397zm16.762 16.327h-200.817c2.65 56.055 41.488 93.574 94.892 93.574 31.34 0 59.15-11.474 77.69-31.784l10.59 11.924c-21.188 22.953-52.524 36.633-89.161 36.633-64.88 0-112.11-47.673-112.11-115.202s47.23-115.636 112.11-115.636c67.536 0 108.14 49.432 106.808 120.49"/>
  <path fill="#f2f031" d="M69.186 156.534V325.24l48.696-28.116V185.217l99.86-53.448V77.006L69.186 156.534"/>
  <path fill="none" stroke="#211d1d" stroke-linecap="round" stroke-linejoin="round" stroke-miterlimit="10" stroke-width="6.771" d="M69.186 156.534V325.24l48.696-28.116V185.217l99.86-53.448V77.006z"/>
  <path fill="#f2f031" d="M504.778 242.08v54.946L362.66 215.211l-.242-54.684 142.36 81.554"/>
  <path fill="none" stroke="#211d1d" stroke-linecap="round" stroke-linejoin="round" stroke-miterlimit="10" stroke-width="6.771" d="M504.778 242.08v54.946L362.66 215.211l-.242-54.684z"/>
  <path fill="#f2f031" d="M504.778 297.026V242.08l48.573-25.838v54.593l-48.573 26.191"/>
  <path fill="none" stroke="#211d1d" stroke-linecap="round" stroke-linejoin="round" stroke-miterlimit="10" stroke-width="6.771" d="M504.778 297.026V242.08l48.573-25.838v54.593z"/>
  <path fill="#f2f031" d="M364.1 161.613l-107.773 58.08.014 54.682 107.995-57.604-.237-55.158"/>
  <path fill="none" stroke="#211d1d" stroke-linecap="round" stroke-linejoin="round" stroke-miterlimit="10" stroke-width="6.771" d="M364.1 161.613l-107.773 58.08.014 54.682 107.995-57.604z"/>
  <path fill="#f2f031" d="M256.327 219.693l107.772-58.08 140.679 80.467 48.573-25.838L217.536 22.933 20.488 128.421l48.705 28.114 148.548-79.528 95.36 54.894-108.213 58.143 51.44 29.65-51.44-29.65V304.65l195.038 111.412 54.918-29.125-198.503-112.563-.014-54.682"/>
  <path fill="none" stroke="#211d1d" stroke-linecap="round" stroke-linejoin="round" stroke-miterlimit="10" stroke-width="6.771" d="M256.327 219.693l107.772-58.08 140.679 80.467 48.573-25.838L217.536 22.933 20.488 128.421l48.705 28.114 148.548-79.528 95.36 54.894-108.213 58.143 51.44 29.65-51.44-29.65V304.65l195.038 111.412 54.917-29.125-198.501-112.562z"/>
  <path fill="#f2f031" d="M359.27 546.23L20.487 352.843V128.422l48.517 28.114v166.868L359.27 490.426v55.805"/>
  <path fill="none" stroke="#211d1d" stroke-linecap="round" stroke-linejoin="round" stroke-miterlimit="10" stroke-width="6.771" d="M359.27 546.23L20.487 352.843V128.422l48.517 28.114v166.868L359.27 490.426z"/>
  <path fill="#f2f031" d="M553.35 386.707L359.27 490.425v55.804l194.08-103.89v-55.632l-244.785-140.23-52.225 27.898 198.505 112.562-94.072 49.892L217.48 354.2l-99.59-57.086-48.887 26.287L359.27 490.425"/>
  <path fill="none" stroke="#211d1d" stroke-linecap="round" stroke-linejoin="round" stroke-miterlimit="10" stroke-width="6.771" d="M553.35 386.707L359.27 490.425v55.804l194.08-103.89v-55.632l-244.785-140.23-52.225 27.898 198.505 112.562-94.072 49.892L217.48 354.2l-99.59-57.086-48.887 26.287L359.27 490.425"/>
  <path fill="#f2f031" d="M217.74 131.769l46.046 26.628 49.315-26.496-95.36-54.895v54.764"/>
  <path fill="none" stroke="#211d1d" stroke-linecap="round" stroke-linejoin="round" stroke-miterlimit="10" stroke-width="6.771" d="M217.74 131.769l46.046 26.628 49.315-26.496-95.36-54.895z"/>
</svg>
