<svg xmlns="http://www.w3.org/2000/svg" viewBox="0 0 1690 740">
  <path fill="#ff282d" d="M1141.674 150.427V582.21h129.698v-65.972h-42.86V84.657l-86.851.012zM15.432 516.237h44.09V307.922h-44.09v-57.289l44.09-7.25V185.39c0-70.246 15.29-100.73 104.872-100.73 19.348 0 42.281 2.856 62.36 6.473l-11.9 70.614c-13.599-2.155-20.343-2.537-28.939-2.537-31.56 0-39.54 3.149-39.54 33.985v50.187h65.53v64.54h-65.53v208.316h43.63V582.2l-174.57.018v-65.981zm1082.062-20.848c-13.587 2.867-25.466 2.522-34.062 2.734-35.733.878-32.646-10.866-32.646-44.557V307.922h68.014v-64.54h-68.014V84.657h-86.85v386.915c0 75.966 18.747 110.636 100.454 110.636 19.352 0 45.941-4.979 66.017-9.279zm539.529 21.202c18.252 0 33.034 14.509 33.034 32.763 0 18.249-14.783 32.754-33.034 32.754-18.252 0-32.947-14.505-32.947-32.754 0-18.254 14.696-32.763 32.947-32.763m0 60.369c15.162 0 27.512-12.446 27.512-27.606 0-15.169-12.35-27.237-27.512-27.237-15.16 0-27.428 12.07-27.428 27.237 0 15.159 12.269 27.606 27.428 27.606m6.083-11.512l-6.647-9.734h-4.585v9.734h-7.39v-32.2h13.47c7.958 0 12.92 4.028 12.92 11.147 0 5.233-2.623 8.793-6.737 10.007l8.048 11.045h-9.079zm-11.23-16.193h5.895c3.374 0 5.618-1.309 5.618-4.859 0-3.37-2.245-4.687-5.435-4.687h-6.08v9.546zm-796.357-241.45V296.25c-26.274-4.793-52.366-4.862-66.52-4.862-40.418 0-45.346 21.434-45.346 33.052 0 16.437 5.609 25.324 49.396 34.898 64.004 14.369 128.283 29.36 128.283 108.723 0 75.265-38.735 114.148-120.27 114.148-54.56 0-107.498-11.712-147.892-21.962V495.39h65.769l-.039 11.523c28.303 5.467 57.978 4.92 73.47 4.92 43.112 0 50.087-23.179 50.087-35.502 0-17.102-12.364-25.315-52.775-33.51-76.136-13.01-136.558-39.003-136.558-116.34 0-73.204 48.96-101.92 130.495-101.92 55.238 0 97.238 8.566 137.653 18.822v64.422zM435.93 364.812l-6.609-6.611-33.566 29.25a15.967 15.967 0 00-5.4-.955c-9.057 0-16.39 7.55-16.39 16.85 0 9.312 7.333 16.859 16.39 16.859 9.054 0 16.403-7.547 16.403-16.859a17.25 17.25 0 00-.759-5.068z"/>
  <path fill="#ff282d" d="M568.958 495.39l-.057-270.266h-86.85v25.345a177.544 177.544 0 00-59.05-22.339h.491v-29.992h10.596v-22.057H346.64v22.057h10.595v29.992h.603C274.77 243.422 211.82 316.161 211.82 403.65c0 98.598 79.928 178.526 178.526 178.526 33.651 0 65.12-9.322 91.986-25.508l15.646 25.541h91.738v-86.82h-20.76zm-173.41-.198v-10.21h-10.405v10.182c-46.613-2.717-83.897-40.167-86.329-86.856h10.343v-10.405h-10.29c2.765-46.365 39.895-83.46 86.276-86.163v10.233h10.406V311.71c45.718 2.444 82.546 38.305 86.525 83.6v2.984h-10.426v10.405h10.428l.001 2.85c-3.958 45.316-40.795 81.2-86.528 83.643zm1095.639-251.81h179.129v64.478H1627.5l-109.86 270.275c-31.486 75.923-83.202 147.382-161.963 147.382-19.365 0-45.145-2.146-63.022-6.442l7.855-78.827c11.472 2.146 26.498 3.558 34.382 3.558 36.524 0 77.725-22.631 90.61-62.034l-111.313-273.91h-42.818v-64.478h179.222v64.478h-42.812l63.063 155.148 63.063-155.148h-42.722v-64.48z"/>
</svg>
