<svg xmlns="http://www.w3.org/2000/svg" viewBox="0 0 392 160">
  <defs>
    <linearGradient id="a" x1="35.293" x2="125.625" y1="-3154.505" y2="-3244.837" gradientTransform="matrix(1 0 0 -1 -12 -3138.057)" gradientUnits="userSpaceOnUse">
      <stop offset="0" stop-color="#00d3e6"/>
      <stop offset="1" stop-color="#2b4cd4"/>
    </linearGradient>
  </defs>
  <path fill="url(#a)" d="M120.168 14.327a8.25 8.25 0 11-8.25-8.25 8.25 8.25 0 018.25 8.25zm-16.5 41.25a49.5 49.5 0 11-49.5-49.5 49.5 49.5 0 0149.5 49.5zm-16.5 0a33 33 0 10-33 33 33 33 0 0033-33zm14.08 51.92a8.23 8.23 0 00-11.639-.021l-.021.021-33 33a8.245 8.245 0 0011.66 11.66l33-33a8.231 8.231 0 00.021-11.639z" data-name="Layer 1-2"/>
  <path fill="#32343f" d="M162.493 71.785c-9.35 0-16.846-5.204-16.846-15.965V37.74h-8.909V27.152h8.909v-12.26h12.083v12.26h12.436V37.74H157.73v15.7c0 5.382 2.294 7.497 7.496 7.497a13.81 13.81 0 004.94-.792V70.81a25.029 25.029 0 01-7.673.974zm18.081-66.681h12.083v27.08a14.726 14.726 0 0112.615-6c10.667 0 17.02 7.763 17.02 19.228v25.844H210.21V47.44c0-6.35-2.733-10.231-7.763-10.231-5.556 0-9.79 4.057-9.79 12.524v21.518h-12.083zm74.886 67.128a22.281 22.281 0 01-23.109-23.107 22.412 22.412 0 0123.195-22.934c12.968 0 23.64 9.262 23.023 25.844h-34.392c.53 5.205 4.414 9.701 11.908 9.701 4.23 0 7.938-1.852 9.348-4.851h12.613c-2.654 8.901-11.386 15.34-22.586 15.34zm-10.851-28.139h20.729a10.091 10.091 0 00-10.145-8.114 10.3 10.3 0 00-10.582 8.109zm-92.613 90.543c1.499 4.498 4.938 6.527 9.966 6.527 5.293 0 9.966-3.441 9.966-10.408v-5.204a15.798 15.798 0 01-12.79 5.82c-11.466 0-20.814-9.878-20.814-22.225 0-12.437 9.348-22.315 20.815-22.315a15.6 15.6 0 0112.79 5.91v-4.946h12.082v41.368c0 15.963-10.85 22.049-22.314 22.049-12.438 0-20.64-7.143-21.518-16.582zm9.701-36.783a11.29 11.29 0 1011.202 11.289 10.963 10.963 0 00-11.193-11.29zm35.723-10.056h12.084v7.057a11.747 11.747 0 0110.939-7.585 13.933 13.933 0 014.057.528v12.261a16.606 16.606 0 00-5.47-.97c-5.732 0-9.526 4.498-9.526 11.731v21.084H197.42zm52.933-.971a15.734 15.734 0 0112.69 5.903v-4.934h12.083v44.108h-12.083v-4.945a15.74 15.74 0 01-12.703 5.909c-11.73 0-20.725-10.496-20.725-23.02 0-12.525 8.998-23.021 20.738-23.021zm2.56 11.035c-6.621 0-11.114 5.114-11.114 11.994s4.496 11.997 11.114 11.997c6.617 0 11.112-5.118 11.112-11.997 0-6.878-4.506-12.004-11.122-12.004zm35.723-10.057h12.083v4.925a16.072 16.072 0 0112.79-5.909c11.731 0 20.728 10.496 20.728 23.02 0 12.525-8.997 23.021-20.729 23.021a16.078 16.078 0 01-12.789-5.909v23.38h-12.083zm22.224 10.047c-6.62 0-11.114 5.115-11.114 11.995 0 6.88 4.493 11.997 11.114 11.997s11.114-5.118 11.114-11.997c0-6.878-4.506-11.995-11.114-11.995zm33.958-32.105H356.9v27.077a14.724 14.724 0 0112.613-5.997c10.667 0 17.023 7.76 17.023 19.228v25.849h-12.083v-23.822c0-6.349-2.735-10.23-7.763-10.23-5.556 0-9.79 4.058-9.79 12.523v21.529h-12.083z"/>
</svg>
