<svg xmlns="http://www.w3.org/2000/svg" viewBox="0 0 144 59"><g fill="none" fill-rule="evenodd"><path d="M32.463 2.105V35.16c0 .26-.211.472-.472.472h-3.467a4.722 4.722 0 01-3.965-2.157L8.955 9.355l.535 12.046v13.76c0 .26-.212.471-.473.471H4.473a.472.472 0 01-.472-.472V2.105c0-.26.212-.472.472-.472h3.421c1.6 0 3.093.81 3.963 2.154L27.46 27.86l-.485-11.997V2.105c0-.26.211-.472.472-.472h4.544c.26 0 .472.211.472.472M77.99 35.632h-4.813a.472.472 0 01-.44-.642L85.476 2.085a.709.709 0 01.66-.452h6.023c.293 0 .556.18.661.452l12.739 32.905a.472.472 0 01-.44.642h-4.814a.472.472 0 01-.441-.305L89.59 8.237a.472.472 0 00-.884 0l-10.274 27.09a.472.472 0 01-.442.305M139.898 34.87l-9.554-12.206c5.391-1.02 8.549-4.663 8.549-10.249 0-6.41-4.178-10.782-11.56-10.782h-13.33a.709.709 0 00-.708.708 4.537 4.537 0 004.537 4.538h8.918c4.469 0 6.606 2.282 6.606 5.585s-2.09 5.634-6.606 5.634h-12.746a.708.708 0 00-.709.709V35.16c0 .26.212.472.473.472h4.544c.26 0 .472-.211.472-.472V22.956h5.246l8.296 10.826a4.721 4.721 0 003.748 1.85h3.452a.472.472 0 00.372-.763M64.552 30.387H48.79a.472.472 0 01-.472-.472v-8.527c0-.26.21-.472.472-.472h14.55c.26 0 .472-.212.472-.473v-4.302a.472.472 0 00-.473-.472H43.536a.709.709 0 00-.708.709v18.546c0 .391.317.708.708.708h21.016a.472.472 0 00.473-.472v-4.301a.472.472 0 00-.473-.472m0-28.754H43.46a.631.631 0 00-.631.63 4.615 4.615 0 004.615 4.616h17.11a.472.472 0 00.472-.473V2.105a.472.472 0 00-.473-.472" fill="#24272a"/><g fill="#8fd6bd"><path d="M6.056 46.332v3.016c0 .1.081.182.182.182h5.435c.1 0 .182.082.182.183v1.598a.183.183 0 01-.182.183H6.238a.183.183 0 00-.182.183v5.052c0 .1-.082.182-.183.182H4.184a.183.183 0 01-.183-.182v-12.36c0-.102.082-.183.183-.183h7.942c.101 0 .184.081.184.182v1.598c0 .101-.083.183-.184.183H6.238a.183.183 0 00-.182.183M18.092 50.549c0 2.654 1.945 4.617 4.527 4.617 2.563 0 4.508-1.963 4.508-4.617 0-2.655-1.945-4.618-4.508-4.618-2.582 0-4.527 1.963-4.527 4.618m11.126 0c-.018 3.744-2.872 6.58-6.599 6.58-3.727 0-6.6-2.836-6.6-6.58 0-3.745 2.873-6.582 6.6-6.582 3.727 0 6.581 2.837 6.6 6.582M43.69 44.186c.1 0 .182.081.182.183v7.47c0 3.545-2.218 5.29-5.145 5.29-2.927 0-5.145-1.745-5.145-5.29v-7.47c0-.102.082-.183.183-.183h1.725c.1 0 .182.081.182.183v7.343c0 2.472 1.291 3.454 3.055 3.454 1.763 0 3.054-.982 3.054-3.454v-7.343c0-.102.082-.183.183-.183zM59.27 44.368v12.36a.183.183 0 01-.182.183h-1.259c-.62 0-1.198-.314-1.534-.834l-5.823-9 .2 4.508v5.144a.183.183 0 01-.183.182H48.8a.183.183 0 01-.183-.182v-12.36c0-.101.082-.183.183-.183h1.241c.62 0 1.198.314 1.535.834l5.822 8.983-.182-4.49v-5.145c0-.1.082-.182.183-.182h1.689c.1 0 .182.082.182.182M73.38 50.549c0-2.582-1.872-4.4-4.435-4.4H66.71a.183.183 0 00-.183.183v8.433c0 .101.082.183.183.183h2.235c2.563 0 4.436-1.8 4.436-4.4m2.054 0c0 3.673-2.818 6.363-6.509 6.363h-4.27a.183.183 0 01-.183-.182v-12.36c0-.101.081-.183.182-.183h4.271c3.709 0 6.509 2.672 6.509 6.363M85.939 51.3l-1.753-4.627a.183.183 0 00-.342 0l-1.754 4.628a.183.183 0 00.171.247h3.507a.183.183 0 00.17-.247m.713 2.193h-5.273a.182.182 0 00-.171.118l-1.202 3.181a.183.183 0 01-.17.118h-1.79a.183.183 0 01-.17-.249l4.786-12.36a.182.182 0 01.17-.116h2.367c.076 0 .143.046.17.117l4.786 12.36a.183.183 0 01-.17.248h-1.789a.182.182 0 01-.17-.118l-1.203-3.181a.182.182 0 00-.17-.118M101.212 46.15h-3.525a.183.183 0 00-.183.182v10.397a.182.182 0 01-.182.182h-1.689a.183.183 0 01-.183-.182V46.332a.183.183 0 00-.182-.183h-2.382a1.78 1.78 0 01-1.78-1.78c0-.101.082-.183.183-.183h9.923c.101 0 .183.082.183.182v1.598a.183.183 0 01-.183.183M106.05 44.186h1.689c.1 0 .183.081.183.183v12.36c0 .1-.082.183-.183.183h-1.689a.183.183 0 01-.183-.183v-12.36c0-.102.082-.183.183-.183M114.376 50.549c0 2.654 1.945 4.617 4.526 4.617 2.564 0 4.509-1.963 4.509-4.617 0-2.655-1.945-4.618-4.509-4.618-2.581 0-4.526 1.963-4.526 4.618m11.126 0c-.019 3.744-2.873 6.58-6.6 6.58-3.727 0-6.599-2.836-6.599-6.58 0-3.745 2.872-6.582 6.6-6.582 3.726 0 6.58 2.837 6.599 6.582M140 44.368v12.36a.183.183 0 01-.183.183h-1.26c-.62 0-1.197-.314-1.534-.834l-5.823-9 .2 4.508v5.144a.183.183 0 01-.183.182h-1.688a.183.183 0 01-.183-.182v-12.36c0-.101.082-.183.183-.183h1.241c.62 0 1.197.314 1.535.834l5.822 8.983-.182-4.49v-5.145c0-.1.082-.182.183-.182h1.689c.1 0 .182.082.182.182"/></g></g></svg>