<svg xmlns="http://www.w3.org/2000/svg" width="256" height="256"><defs><linearGradient id="a" x1="0%" y1="0%" x2="0%" y2="100%"><stop offset="0%" stop-color="#81b4e0"/><stop offset="100%" stop-color="#0c5a94"/></linearGradient><linearGradient id="b" gradientUnits="userSpaceOnUse" x1="128" y1="16" x2="128" y2="107"><stop offset="0%" stop-color="#f06b59"/><stop offset="100%" stop-color="#df2227"/></linearGradient><linearGradient id="c" gradientUnits="userSpaceOnUse" x1="72" y1="225" x2="118" y2="149"><stop offset="0%" stop-color="#388b41"/><stop offset="100%" stop-color="#4cb749"/></linearGradient><linearGradient id="d" gradientUnits="userSpaceOnUse" x1="187" y1="220" x2="138" y2="102"><stop offset="0%" stop-color="#e4b022"/><stop offset="30%" stop-color="#fcd209"/></linearGradient><linearGradient id="e" gradientUnits="userSpaceOnUse" x1="80" y1="140" x2="80" y2="60"><stop offset="0%" stop-opacity=".15"/><stop offset="30%" stop-opacity=".06"/><stop offset="100%" stop-opacity=".03"/></linearGradient><linearGradient id="f" gradientUnits="userSpaceOnUse" x1="164" y1="161" x2="109" y2="217"><stop offset="0%" stop-opacity=".15"/><stop offset="30%" stop-opacity=".06"/><stop offset="100%" stop-opacity=".03"/></linearGradient><linearGradient id="g" gradientUnits="userSpaceOnUse" x1="139" y1="179" x2="147" y2="100"><stop offset="0%" stop-opacity=".15"/><stop offset="30%" stop-opacity=".06"/><stop offset="100%" stop-opacity=".03"/></linearGradient></defs><circle cx="128" cy="128" r="110" fill="#fff"/><path fill-opacity=".1" d="M198 148a70 70 0 00-140 0h20a50 50 0 01100 0"/><circle fill-opacity=".1" cx="133" cy="142" r="38"/><circle cx="50%" cy="50%" r="41" fill="url(#a)"/><path fill="url(#b)" d="M228 78A112 112 0 0035 65l45 78a50 50 0 0147-65"/><path fill="url(#c)" d="M35 65a112 112 0 0084 174l47-80a50 50 0 01-86-16"/><path fill="url(#d)" d="M119 239A112 112 0 00228 78H127a50 50 0 0139 81"/><path fill="url(#e)" d="M35 65l45 78a50 50 0 012-34L37 62"/><path fill="url(#f)" d="M119 239l47-80a50 50 0 01-29 17l-20 63"/><path fill="url(#g)" d="M228 78H127a50 50 0 0139 19l64-16"/></svg>