<svg xmlns="http://www.w3.org/2000/svg" width="1692" height="795" viewBox="-35.904 -73.544 1692 795" fill="#fff">
  <path d="M703.358 689.151c37.555 0 68 30.442 68 68 0 37.555-30.445 68-68 68s-68-30.445-68-68c-.001-37.557 30.445-68 68-68z"/>
  <path d="M771.358 683.65c23.748 0 43.001 19.253 43.001 43.001 0 23.746-19.253 42.998-43.001 42.998-23.749 0-43.001-19.252-43.001-42.998 0-23.748 19.252-43.001 43.001-43.001zM617.857 689.151c39.765 0 72 32.236 72 72 0 39.765-32.236 72-72 72s-72-32.235-72-72c0-39.763 32.236-72 72-72zM991.359 689.651c20.435 0 36.999 16.565 36.999 37s-16.564 36.999-36.999 36.999c-20.435 0-37.002-16.564-37.002-36.999 0-20.435 16.567-37 37.002-37z"/>
  <path d="M846.358 667.149c41.421 0 74.999 33.581 74.999 75.002 0 41.422-33.578 75-74.999 75-41.422 0-75-33.578-75-75 0-41.421 33.578-75.002 75-75.002z"/>
  <path d="M921.357 831.151c-40.316 0-72.998-32.685-72.998-73.001 0-40.317 32.682-72.998 72.998-72.998 40.317 0 73.001 32.681 73.001 72.998 0 40.317-32.684 73.001-73.001 73.001zm118.5-43.002c-31.479 0-57-25.519-57-57 0-31.479 25.521-57 57-57 31.481 0 57.001 25.521 57.001 57 0 31.482-25.52 57-57.001 57z"/>
  <path d="M1123.858 685.149c39.764 0 72 32.236 72 72.001 0 39.764-32.236 72-72 72s-72-32.236-72-72 32.236-72.001 72-72.001zM545.857 669.151c28.167 0 51.001 22.834 51.001 50.998 0 28.168-22.834 51.002-51.001 51.002-28.165 0-50.999-22.834-50.999-51.002 0-28.164 22.834-50.998 50.999-50.998z"/>
  <path d="M468.858 687.152c40.869 0 73.999 33.129 73.999 73.998 0 40.869-33.13 73.999-73.999 73.999-40.869 0-74.001-33.13-74.001-73.999 0-40.869 33.133-73.998 74.001-73.998z"/>
  <path d="M378.859 647.151c40.869 0 73.999 33.13 73.999 73.999 0 40.868-33.13 74.001-73.999 74.001-40.869 0-74.002-33.133-74.002-74.001 0-40.869 33.133-73.999 74.002-73.999zM1226.859 669.15c40.869 0 73.999 33.13 73.999 73.999 0 40.869-33.13 74.002-73.999 74.002-40.869 0-74.002-33.133-74.002-74.002 0-40.869 33.133-73.999 74.002-73.999zM1496.858 677.151c40.869 0 73.999 33.13 73.999 73.998 0 40.869-33.13 74.002-73.999 74.002-40.869 0-73.999-33.133-73.999-74.002 0-40.868 33.13-73.998 73.999-73.998zM124.858 689.149c40.869 0 73.999 33.133 73.999 74.002 0 40.869-33.13 73.999-73.999 73.999-40.869 0-73.999-33.13-73.999-73.999 0-40.869 33.13-74.002 73.999-74.002z"/>
  <path d="M239.58 613.151c62.563 0 113.279 50.714 113.279 113.276 0 62.56-50.717 113.276-113.279 113.276-62.56 0-113.276-50.717-113.276-113.276 0-62.562 50.717-113.276 113.276-113.276z"/>
  <path d="M1383.582 607.149c62.56 0 113.276 50.717 113.276 113.276 0 62.563-50.717 113.279-113.276 113.279-62.563 0-113.276-50.717-113.276-113.279-.001-62.559 50.713-113.276 113.276-113.276z"/>
  <path d="M393.417 242a5.418 5.418 0 015.417 5.416 5.42 5.42 0 01-5.417 5.417 5.418 5.418 0 010-10.833zM1237.049 451.838a5.416 5.416 0 110 10.83 5.416 5.416 0 110-10.83zM347.416 122a5.416 5.416 0 110 10.831 5.416 5.416 0 110-10.831zM1175.415 481.998a5.417 5.417 0 110 10.833 5.417 5.417 0 010-10.833zM203.416 378a5.416 5.416 0 11.001 10.833 5.416 5.416 0 01-.001-10.833zM153.417 402.001a5.413 5.413 0 015.414 5.414 5.413 5.413 0 01-5.414 5.416 5.414 5.414 0 01-5.417-5.416 5.414 5.414 0 015.417-5.414zM5.417 613.999a5.418 5.418 0 015.417 5.416 5.419 5.419 0 01-5.417 5.417 5.418 5.418 0 010-10.833zM305.416 560.001a5.416 5.416 0 11.002 10.832 5.416 5.416 0 01-.002-10.832zM563.417 526.001a5.416 5.416 0 110 10.83 5.416 5.416 0 110-10.83zM661.417 410.001a5.416 5.416 0 110 10.831 5.416 5.416 0 110-10.831zM1055.417 396a5.415 5.415 0 015.414 5.416 5.415 5.415 0 11-10.83 0 5.416 5.416 0 015.416-5.416zM907.417 522a5.415 5.415 0 015.414 5.417 5.414 5.414 0 01-5.414 5.414 5.415 5.415 0 110-10.831zM1201.417 135.999a5.416 5.416 0 015.414 5.417 5.417 5.417 0 11-5.414-5.417zM1447.416 357.999a5.417 5.417 0 110 10.833 5.417 5.417 0 010-10.833zM1547.417 560.001a5.413 5.413 0 015.414 5.416 5.415 5.415 0 11-5.414-5.416z" opacity=".5"/>
</svg>
