<svg width="48" height="48" viewBox="0 0 48 48" fill="none" xmlns="http://www.w3.org/2000/svg">
<path d="M36 7.0731C36 8.72828 34.9959 9.50069 33.7931 8.79448C33.1166 8.30003 32.5649 7.65455 32.1818 6.90938C31.7987 6.16421 31.5947 5.33992 31.5862 4.50207L23.8621 0V9.30207L34.8965 15.7462L36 16.3862V31.9117L43.7241 36.4138V11.5862L36 7.0731Z" fill="#4946DD"/>
<path d="M26.069 13.1421C26.069 14.7972 25.0648 15.5697 23.8621 14.8635C23.1856 14.369 22.6339 13.7235 22.2508 12.9784C21.8676 12.2332 21.6637 11.4089 21.6552 10.571L13.931 6.06897V14.8193L24.9655 21.2635L26.069 21.9035V37.9807L33.7931 42.4828V17.6552L26.069 13.1421Z" fill="#4946DD"/>
<path d="M16.1379 18.6593C16.1379 20.3145 15.1338 21.0869 13.931 20.3807C13.2546 19.8862 12.7029 19.2408 12.3197 18.4956C11.9366 17.7504 11.7327 16.9261 11.7241 16.0883L4 11.5862V36.4138L23.8621 48V23.1724L16.1379 18.6593Z" fill="#4946DD"/>
</svg>
